<svg width="48" height="48" viewBox="0 0 48 48" fill="none" xmlns="http://www.w3.org/2000/svg">
<path d="M0 4C0 1.79086 1.79086 0 4 0H44C46.2091 0 48 1.79086 48 4V44C48 46.2091 46.2091 48 44 48H4C1.79086 48 0 46.2091 0 44V4Z" fill="#0FEB4D"/>
<path d="M37.0078 29.3202C37.6988 27.8871 38.0378 26.3097 37.9968 24.7192C37.9557 23.1287 37.5357 21.571 36.7718 20.1754C36.0078 18.7798 34.9218 17.5867 33.6041 16.695C32.2864 15.8034 30.7749 15.2391 29.1953 15.0489C28.6697 13.8269 27.9056 12.722 26.9476 11.799C25.9897 10.8759 24.8572 10.1533 23.6165 9.6734C22.3758 9.19349 21.0518 8.96596 19.7221 9.00412C18.3924 9.04227 17.0836 9.34536 15.8725 9.89563C14.6613 10.4459 13.5722 11.2323 12.6687 12.2087C11.7653 13.1852 11.0658 14.3321 10.6111 15.5823C10.1565 16.8324 9.95582 18.1608 10.0209 19.4894C10.086 20.8181 10.4156 22.1205 10.9903 23.3202L10.0816 26.4089C9.97995 26.7538 9.97316 27.1196 10.0619 27.4679C10.1506 27.8163 10.3316 28.1343 10.5858 28.3885C10.84 28.6427 11.158 28.8236 11.5063 28.9124C11.8547 29.0011 12.2205 28.9943 12.5653 28.8927L15.6541 27.9839C16.6458 28.4605 17.7092 28.7708 18.8016 28.9027C19.3323 30.1462 20.1097 31.2692 21.0867 32.2037C22.0637 33.1383 23.2201 33.865 24.486 34.34C25.7518 34.8149 27.1008 35.0282 28.4515 34.9671C29.8021 34.9059 31.1263 34.5714 32.3441 33.9839L35.4328 34.8927C35.7775 34.9942 36.1432 35.0009 36.4914 34.9123C36.8396 34.8236 37.1574 34.6427 37.4116 34.3887C37.6657 34.1347 37.8467 33.8169 37.9356 33.4688C38.0244 33.1206 38.0179 32.7549 37.9166 32.4102L37.0078 29.3202ZM15.7491 25.9127C15.6535 25.9129 15.5584 25.9264 15.4666 25.9527L11.9991 26.9752L13.0203 23.5052C13.0929 23.2545 13.0647 22.9853 12.9416 22.7552C12.0369 21.0634 11.7704 19.1029 12.1905 17.231C12.6106 15.3591 13.6894 13.7006 15.2302 12.5576C16.7711 11.4147 18.6713 10.8635 20.5845 11.0046C22.4978 11.1456 24.2966 11.9695 25.6532 13.3261C27.0097 14.6826 27.8336 16.4815 27.9747 18.3947C28.1157 20.308 27.5646 22.2082 26.4216 23.749C25.2787 25.2898 23.6201 26.3686 21.7482 26.7887C19.8763 27.2089 17.9158 26.9423 16.2241 26.0377C16.0786 25.9572 15.9153 25.9142 15.7491 25.9127ZM34.9728 29.5039L35.9991 32.9752L32.5291 31.9539C32.2784 31.8813 32.0092 31.9096 31.7791 32.0327C29.9376 33.016 27.7849 33.2411 25.7798 32.6602C23.7747 32.0792 22.0759 30.7381 21.0453 28.9227C22.4145 28.7798 23.7394 28.3555 24.9369 27.6763C26.1344 26.9972 27.1787 26.078 28.0041 24.9762C28.8296 23.8745 29.4184 22.6141 29.7338 21.274C30.0491 19.9339 30.0841 18.5432 29.8366 17.1889C31.0295 17.4702 32.142 18.0217 33.088 18.8011C34.0339 19.5804 34.7882 20.5667 35.2925 21.6839C35.7969 22.801 36.0378 24.019 35.9966 25.244C35.9555 26.469 35.6334 27.6682 35.0553 28.7489C34.9308 28.9805 34.9026 29.2517 34.9766 29.5039H34.9728Z" fill="white"/>
</svg>
