<svg width="48" height="48" viewBox="0 0 48 48" fill="none" xmlns="http://www.w3.org/2000/svg">
<path d="M0 4C0 1.79086 1.79086 0 4 0H44C46.2091 0 48 1.79086 48 4V44C48 46.2091 46.2091 48 44 48H4C1.79086 48 0 46.2091 0 44V4Z" fill="#B6C59F"/>
<path d="M36 13H29C28.8619 12.9999 28.7254 13.0284 28.5989 13.0837C28.4724 13.139 28.3587 13.2199 28.265 13.3213L16.5625 26H12C11.4696 26 10.9609 26.2107 10.5858 26.5858C10.2107 26.9609 10 27.4696 10 28V33C10 33.5304 10.2107 34.0391 10.5858 34.4142C10.9609 34.7893 11.4696 35 12 35H19C19.1381 35.0001 19.2746 34.9716 19.4011 34.9163C19.5276 34.861 19.6413 34.7801 19.735 34.6787L31.4375 22H36C36.5304 22 37.0391 21.7893 37.4142 21.4142C37.7893 21.0391 38 20.5304 38 20V15C38 14.4696 37.7893 13.9609 37.4142 13.5858C37.0391 13.2107 36.5304 13 36 13ZM36 20H31C30.8619 19.9999 30.7254 20.0284 30.5989 20.0837C30.4724 20.139 30.3587 20.2199 30.265 20.3212L18.5625 33H12V28H17C17.1381 28.0001 17.2746 27.9716 17.4011 27.9163C17.5276 27.861 17.6413 27.7801 17.735 27.6787L29.4375 15H36V20ZM36.7075 29.2925C36.8004 29.3854 36.8741 29.4957 36.9244 29.6171C36.9747 29.7385 37.0006 29.8686 37.0006 30C37.0006 30.1314 36.9747 30.2615 36.9244 30.3829C36.8741 30.5043 36.8004 30.6146 36.7075 30.7075C36.6146 30.8004 36.5043 30.8741 36.3829 30.9244C36.2615 30.9747 36.1314 31.0006 36 31.0006C35.8686 31.0006 35.7385 30.9747 35.6171 30.9244C35.4957 30.8741 35.3854 30.8004 35.2925 30.7075L34 29.4137V34C34 34.2652 33.8946 34.5196 33.7071 34.7071C33.5196 34.8946 33.2652 35 33 35C32.7348 35 32.4804 34.8946 32.2929 34.7071C32.1054 34.5196 32 34.2652 32 34V29.4137L30.7075 30.7075C30.5199 30.8951 30.2654 31.0006 30 31.0006C29.7346 31.0006 29.4801 30.8951 29.2925 30.7075C29.1049 30.5199 28.9994 30.2654 28.9994 30C28.9994 29.7346 29.1049 29.4801 29.2925 29.2925L32.2925 26.2925C32.3854 26.1995 32.4957 26.1258 32.6171 26.0754C32.7385 26.0251 32.8686 25.9992 33 25.9992C33.1314 25.9992 33.2615 26.0251 33.3829 26.0754C33.5043 26.1258 33.6146 26.1995 33.7075 26.2925L36.7075 29.2925Z" fill="black"/>
</svg>
