<svg width="48" height="48" viewBox="0 0 48 48" fill="none" xmlns="http://www.w3.org/2000/svg">
<path d="M0 4C0 1.79086 1.79086 0 4 0H44C46.2091 0 48 1.79086 48 4V44C48 46.2091 46.2091 48 44 48H4C1.79086 48 0 46.2091 0 44V4Z" fill="#F03F4A"/>
<path d="M33 11H15C14.4696 11 13.9609 11.2107 13.5858 11.5858C13.2107 11.9609 13 12.4696 13 13V35C13 35.5304 13.2107 36.0391 13.5858 36.4142C13.9609 36.7893 14.4696 37 15 37H33C33.5304 37 34.0391 36.7893 34.4142 36.4142C34.7893 36.0391 35 35.5304 35 35V13C35 12.4696 34.7893 11.9609 34.4142 11.5858C34.0391 11.2107 33.5304 11 33 11ZM27 26H33V29H22V26H27ZM28 24V21H33V24H28ZM33 13V19H27C26.7348 19 26.4804 19.1054 26.2929 19.2929C26.1054 19.4804 26 19.7348 26 20V24H21C20.7348 24 20.4804 24.1054 20.2929 24.2929C20.1054 24.4804 20 24.7348 20 25V29H15V13H33ZM33 35H15V31H33V35Z" fill="white"/>
</svg>
