<svg width="48" height="48" viewBox="0 0 48 48" fill="none" xmlns="http://www.w3.org/2000/svg">
<path d="M0 4C0 1.79086 1.79086 0 4 0H44C46.2091 0 48 1.79086 48 4V44C48 46.2091 46.2091 48 44 48H4C1.79086 48 0 46.2091 0 44V4Z" fill="white"/>
<g clip-path="url(#clip0_77_24)">
<path d="M36.7675 15.3587C36.6736 15.2464 36.5562 15.1561 36.4236 15.0941C36.291 15.0321 36.1464 15 36 15H15.835L15.075 10.8212C15.0331 10.5908 14.9117 10.3824 14.732 10.2323C14.5522 10.0823 14.3254 10 14.0912 10H11C10.7348 10 10.4804 10.1054 10.2929 10.2929C10.1054 10.4804 10 10.7348 10 11C10 11.2652 10.1054 11.5196 10.2929 11.7071C10.4804 11.8946 10.7348 12 11 12H13.25L16.445 29.5362C16.5391 30.0563 16.769 30.5423 17.1112 30.945C16.6388 31.3863 16.2978 31.9498 16.1261 32.573C15.9543 33.1962 15.9586 33.8549 16.1383 34.4759C16.318 35.0968 16.6662 35.6559 17.1443 36.0911C17.6223 36.5263 18.2116 36.8205 18.8467 36.9412C19.4818 37.062 20.1379 37.0044 20.7423 36.775C21.3467 36.5456 21.8758 36.1533 22.2708 35.6416C22.6658 35.1299 22.9114 34.5187 22.9804 33.8759C23.0493 33.2332 22.9388 32.5838 22.6613 32H28.3388C28.115 32.4684 27.9993 32.981 28 33.5C28 34.1922 28.2053 34.8689 28.5899 35.4445C28.9744 36.0201 29.5211 36.4687 30.1606 36.7336C30.8001 36.9985 31.5039 37.0678 32.1828 36.9327C32.8617 36.7977 33.4854 36.4644 33.9749 35.9749C34.4644 35.4854 34.7977 34.8617 34.9327 34.1828C35.0678 33.5039 34.9985 32.8001 34.7336 32.1606C34.4687 31.5211 34.0201 30.9744 33.4445 30.5899C32.8689 30.2053 32.1922 30 31.5 30H19.3962C19.1621 30 18.9353 29.9177 18.7555 29.7677C18.5758 29.6176 18.4544 29.4092 18.4125 29.1787L18.0162 27H32.5163C33.2188 26.9999 33.8991 26.7532 34.4384 26.303C34.9777 25.8527 35.3419 25.2275 35.4675 24.5362L36.9875 16.1788C37.0132 16.0343 37.0069 15.886 36.9688 15.7442C36.9308 15.6025 36.8621 15.4709 36.7675 15.3587ZM21 33.5C21 33.7967 20.912 34.0867 20.7472 34.3334C20.5824 34.58 20.3481 34.7723 20.074 34.8858C19.7999 34.9993 19.4983 35.0291 19.2074 34.9712C18.9164 34.9133 18.6491 34.7704 18.4393 34.5607C18.2296 34.3509 18.0867 34.0836 18.0288 33.7926C17.9709 33.5017 18.0006 33.2001 18.1142 32.926C18.2277 32.6519 18.42 32.4176 18.6666 32.2528C18.9133 32.088 19.2033 32 19.5 32C19.8978 32 20.2794 32.158 20.5607 32.4393C20.842 32.7206 21 33.1022 21 33.5ZM33 33.5C33 33.7967 32.912 34.0867 32.7472 34.3334C32.5824 34.58 32.3481 34.7723 32.074 34.8858C31.7999 34.9993 31.4983 35.0291 31.2074 34.9712C30.9164 34.9133 30.6491 34.7704 30.4393 34.5607C30.2296 34.3509 30.0867 34.0836 30.0288 33.7926C29.9709 33.5017 30.0007 33.2001 30.1142 32.926C30.2277 32.6519 30.42 32.4176 30.6666 32.2528C30.9133 32.088 31.2033 32 31.5 32C31.8978 32 32.2794 32.158 32.5607 32.4393C32.842 32.7206 33 33.1022 33 33.5ZM33.5 24.1787C33.458 24.4098 33.3361 24.6187 33.1555 24.7689C32.975 24.919 32.7473 25.0008 32.5125 25H17.6525L16.1987 17H34.8013L33.5 24.1787Z" fill="black"/>
</g>
<defs>
<clipPath id="clip0_77_24">
<rect width="32" height="32" fill="white" transform="translate(8 8)"/>
</clipPath>
</defs>
</svg>
