<svg width="48" height="48" viewBox="0 0 48 48" fill="none" xmlns="http://www.w3.org/2000/svg">
<path d="M0 4C0 1.79086 1.79086 0 4 0H44C46.2091 0 48 1.79086 48 4V44C48 46.2091 46.2091 48 44 48H4C1.79086 48 0 46.2091 0 44V4Z" fill="#A1777A"/>
<g clip-path="url(#clip0_53_98)">
<path d="M34.0387 17.46C34.3444 16.474 34.4425 15.4354 34.3267 14.4096C34.211 13.3838 33.8839 12.3931 33.3662 11.5C33.2785 11.348 33.1522 11.2217 33.0001 11.1339C32.8481 11.0462 32.6756 11 32.5 11C31.3352 10.9976 30.186 11.2676 29.1442 11.7885C28.1024 12.3094 27.1969 13.0667 26.5 14H23.5C22.8031 13.0667 21.8976 12.3094 20.8558 11.7885C19.814 11.2676 18.6648 10.9976 17.5 11C17.3244 11 17.1519 11.0462 16.9999 11.1339C16.8478 11.2217 16.7215 11.348 16.6337 11.5C16.1161 12.3931 15.789 13.3838 15.6733 14.4096C15.5575 15.4354 15.6556 16.474 15.9612 17.46C15.3434 18.5384 15.0125 19.7572 15 21V22C15.0021 23.692 15.6163 25.3261 16.7293 26.6006C17.8422 27.875 19.3787 28.7038 21.055 28.9338C20.3708 29.8093 19.9994 30.8888 20 32V33H17C16.2044 33 15.4413 32.6839 14.8787 32.1213C14.3161 31.5587 14 30.7957 14 30C14 29.3434 13.8707 28.6932 13.6194 28.0866C13.3681 27.48 12.9998 26.9288 12.5355 26.4645C12.0712 26.0002 11.52 25.6319 10.9134 25.3806C10.3068 25.1293 9.65661 25 9 25C8.73478 25 8.48043 25.1054 8.29289 25.2929C8.10536 25.4804 8 25.7348 8 26C8 26.2652 8.10536 26.5196 8.29289 26.7071C8.48043 26.8947 8.73478 27 9 27C9.79565 27 10.5587 27.3161 11.1213 27.8787C11.6839 28.4413 12 29.2044 12 30C12 31.3261 12.5268 32.5979 13.4645 33.5356C14.4021 34.4732 15.6739 35 17 35H20V37C20 37.2652 20.1054 37.5196 20.2929 37.7071C20.4804 37.8947 20.7348 38 21 38C21.2652 38 21.5196 37.8947 21.7071 37.7071C21.8946 37.5196 22 37.2652 22 37V32C22 31.2044 22.3161 30.4413 22.8787 29.8787C23.4413 29.3161 24.2044 29 25 29C25.7956 29 26.5587 29.3161 27.1213 29.8787C27.6839 30.4413 28 31.2044 28 32V37C28 37.2652 28.1054 37.5196 28.2929 37.7071C28.4804 37.8947 28.7348 38 29 38C29.2652 38 29.5196 37.8947 29.7071 37.7071C29.8946 37.5196 30 37.2652 30 37V32C30.0006 30.8888 29.6292 29.8093 28.945 28.9338C30.6213 28.7038 32.1578 27.875 33.2707 26.6006C34.3837 25.3261 34.9979 23.692 35 22V21C34.9875 19.7572 34.6566 18.5384 34.0387 17.46ZM33 22C33 23.3261 32.4732 24.5979 31.5355 25.5356C30.5979 26.4732 29.3261 27 28 27H22C20.6739 27 19.4021 26.4732 18.4645 25.5356C17.5268 24.5979 17 23.3261 17 22V21C17.0123 20 17.3116 19.0247 17.8625 18.19C17.9652 18.0547 18.0317 17.8954 18.0558 17.7272C18.0798 17.559 18.0606 17.3875 18 17.2288C17.7395 16.557 17.6142 15.8405 17.6311 15.1202C17.6481 14.3999 17.807 13.69 18.0988 13.0313C18.9171 13.1193 19.7052 13.3904 20.4046 13.8245C21.104 14.2586 21.6966 14.8445 22.1388 15.5388C22.2288 15.6796 22.3528 15.7957 22.4994 15.8763C22.6459 15.9568 22.8103 15.9994 22.9775 16H27.0212C27.1891 16 27.3543 15.9578 27.5015 15.8772C27.6487 15.7966 27.7733 15.6802 27.8638 15.5388C28.3058 14.8444 28.8985 14.2584 29.5978 13.8244C30.2972 13.3903 31.0853 13.1192 31.9037 13.0313C32.1951 13.6902 32.3536 14.4001 32.3701 15.1204C32.3866 15.8407 32.2609 16.5572 32 17.2288C31.9396 17.386 31.9193 17.5558 31.9412 17.7228C31.963 17.8897 32.0262 18.0486 32.125 18.185C32.6813 19.0197 32.9851 19.9971 33 21V22Z" fill="white"/>
</g>
<defs>
<clipPath id="clip0_53_98">
<rect width="32" height="32" fill="white" transform="translate(8 8)"/>
</clipPath>
</defs>
</svg>
