<svg width="48" height="48" viewBox="0 0 48 48" fill="none" xmlns="http://www.w3.org/2000/svg">
<path d="M0 4C0 1.79086 1.79086 0 4 0H44C46.2091 0 48 1.79086 48 4V44C48 46.2091 46.2091 48 44 48H4C1.79086 48 0 46.2091 0 44V4Z" fill="#A32BDB"/>
<path d="M33.0189 27C32.135 26.9995 31.2761 27.2933 30.5776 27.835L27.6889 25.585C27.907 25.085 28.0193 24.5454 28.0189 24C28.0189 23.9075 28.0189 23.815 28.0089 23.7237L29.6626 23.1725C30.1858 23.9794 30.9823 24.5708 31.906 24.8384C32.8297 25.106 33.8189 25.0318 34.6924 24.6294C35.5659 24.2271 36.2652 23.5235 36.6622 22.6476C37.0592 21.7716 37.1273 20.782 36.8541 19.8599C36.5808 18.9378 35.9846 18.1451 35.1744 17.6268C34.3643 17.1086 33.3946 16.8996 32.4429 17.038C31.4913 17.1765 30.6213 17.6532 29.9925 18.3808C29.3637 19.1085 29.018 20.0383 29.0189 21C29.0189 21.0925 29.0189 21.185 29.0289 21.2762L27.3751 21.8275C27.0126 21.267 26.5156 20.8062 25.9294 20.487C25.3432 20.1678 24.6864 20.0004 24.0189 20C23.7982 20.0004 23.5779 20.0188 23.3601 20.055L22.5051 18.125C23.2434 17.5351 23.749 16.7029 23.9323 15.7758C24.1156 14.8488 23.9647 13.8868 23.5065 13.0603C23.0483 12.2339 22.3122 11.5964 21.4288 11.2607C20.5454 10.9251 19.5717 10.9131 18.6803 11.2268C17.7889 11.5406 17.0374 12.1597 16.5589 12.9746C16.0804 13.7895 15.9059 14.7475 16.0663 15.6788C16.2266 16.6101 16.7115 17.4545 17.435 18.0624C18.1585 18.6704 19.0739 19.0025 20.0189 19C20.2396 18.9995 20.4599 18.9811 20.6776 18.945L21.5326 20.87C20.8076 21.4438 20.3044 22.2517 20.109 23.1555C19.9136 24.0593 20.0381 25.0029 20.4614 25.825L17.2476 28.68C16.4389 28.1348 15.459 27.9032 14.4917 28.0287C13.5245 28.1543 12.6362 28.6283 11.9934 29.3619C11.3506 30.0955 10.9974 31.0384 11 32.0138C11.0027 32.9892 11.3609 33.9301 12.0077 34.6602C12.6545 35.3903 13.5453 35.8595 14.5133 35.9798C15.4812 36.1001 16.4598 35.8633 17.2656 35.3136C18.0714 34.764 18.6491 33.9394 18.8904 32.9943C19.1317 32.0493 19.0201 31.0486 18.5764 30.18L21.7901 27.325C22.486 27.7935 23.3118 28.0307 24.1502 28.0029C24.9886 27.9751 25.7969 27.6836 26.4601 27.17L29.3489 29.42C29.1315 29.9184 29.0191 30.4562 29.0189 31C29.0189 31.7911 29.2535 32.5645 29.693 33.2223C30.1325 33.8801 30.7573 34.3928 31.4882 34.6955C32.2191 34.9983 33.0233 35.0775 33.7993 34.9231C34.5752 34.7688 35.2879 34.3878 35.8473 33.8284C36.4067 33.269 36.7877 32.5563 36.942 31.7803C37.0964 31.0044 37.0172 30.2002 36.7144 29.4693C36.4117 28.7383 35.899 28.1136 35.2412 27.6741C34.5834 27.2346 33.81 27 33.0189 27ZM33.0189 19C33.4145 19 33.8011 19.1173 34.13 19.337C34.4589 19.5568 34.7153 19.8692 34.8667 20.2346C35.018 20.6001 35.0576 21.0022 34.9805 21.3902C34.9033 21.7781 34.7128 22.1345 34.4331 22.4142C34.1534 22.6939 33.797 22.8844 33.4091 22.9616C33.0211 23.0387 32.619 22.9991 32.2535 22.8477C31.8881 22.6964 31.5757 22.44 31.356 22.1111C31.1362 21.7822 31.0189 21.3955 31.0189 21C31.0189 20.4696 31.2296 19.9608 31.6047 19.5858C31.9798 19.2107 32.4885 19 33.0189 19ZM18.0189 15C18.0189 14.6044 18.1362 14.2177 18.356 13.8888C18.5757 13.5599 18.8881 13.3036 19.2535 13.1522C19.619 13.0009 20.0211 12.9612 20.4091 13.0384C20.797 13.1156 21.1534 13.3061 21.4331 13.5858C21.7128 13.8655 21.9033 14.2218 21.9805 14.6098C22.0576 14.9978 22.018 15.3999 21.8667 15.7654C21.7153 16.1308 21.4589 16.4432 21.13 16.6629C20.8011 16.8827 20.4145 17 20.0189 17C19.4885 17 18.9798 16.7893 18.6047 16.4142C18.2296 16.0391 18.0189 15.5304 18.0189 15ZM15.0189 34C14.6233 34 14.2367 33.8827 13.9078 33.6629C13.5789 33.4432 13.3225 33.1308 13.1711 32.7654C13.0198 32.3999 12.9802 31.9978 13.0573 31.6098C13.1345 31.2218 13.325 30.8655 13.6047 30.5858C13.8844 30.3061 14.2408 30.1156 14.6287 30.0384C15.0167 29.9612 15.4188 30.0009 15.7843 30.1522C16.1497 30.3036 16.4621 30.5599 16.6818 30.8888C16.9016 31.2177 17.0189 31.6044 17.0189 32C17.0189 32.5304 16.8082 33.0391 16.4331 33.4142C16.058 33.7893 15.5493 34 15.0189 34ZM22.0189 24C22.0189 23.6044 22.1362 23.2177 22.356 22.8888C22.5757 22.5599 22.8881 22.3036 23.2535 22.1522C23.619 22.0009 24.0211 21.9612 24.4091 22.0384C24.797 22.1156 25.1534 22.3061 25.4331 22.5858C25.7128 22.8655 25.9033 23.2218 25.9805 23.6098C26.0576 23.9978 26.018 24.3999 25.8667 24.7654C25.7153 25.1308 25.4589 25.4432 25.13 25.6629C24.8011 25.8827 24.4145 26 24.0189 26C23.4885 26 22.9798 25.7893 22.6047 25.4142C22.2296 25.0391 22.0189 24.5304 22.0189 24ZM33.0189 33C32.6233 33 32.2367 32.8827 31.9078 32.6629C31.5789 32.4432 31.3225 32.1308 31.1711 31.7654C31.0198 31.3999 30.9802 30.9978 31.0573 30.6098C31.1345 30.2218 31.325 29.8655 31.6047 29.5858C31.8844 29.3061 32.2408 29.1156 32.6287 29.0384C33.0167 28.9612 33.4188 29.0009 33.7843 29.1522C34.1497 29.3036 34.4621 29.5599 34.6818 29.8888C34.9016 30.2177 35.0189 30.6044 35.0189 31C35.0189 31.5304 34.8082 32.0391 34.4331 32.4142C34.058 32.7893 33.5493 33 33.0189 33Z" fill="white"/>
</svg>
