<svg width="48" height="48" viewBox="0 0 48 48" fill="none" xmlns="http://www.w3.org/2000/svg">
<rect width="48" height="48" rx="4" fill="#00FF00"/>
<path d="M15.2926 20.7075L11.2926 16.7075C11.1996 16.6146 11.1258 16.5043 11.0755 16.3829C11.0252 16.2615 10.9993 16.1314 10.9993 16C10.9993 15.8686 11.0252 15.7385 11.0755 15.6171C11.1258 15.4957 11.1996 15.3854 11.2926 15.2925L15.2926 11.2925C15.4802 11.1049 15.7347 10.9995 16.0001 10.9995C16.2654 10.9995 16.5199 11.1049 16.7076 11.2925C16.8952 11.4801 17.0006 11.7346 17.0006 12C17.0006 12.2654 16.8952 12.5199 16.7076 12.7075L13.4138 16L16.7076 19.2925C16.8952 19.4801 17.0006 19.7346 17.0006 20C17.0006 20.2654 16.8952 20.5199 16.7076 20.7075C16.5199 20.8951 16.2654 21.0006 16.0001 21.0006C15.7347 21.0006 15.4802 20.8951 15.2926 20.7075ZM20.2926 20.7075C20.3854 20.8005 20.4957 20.8742 20.6171 20.9246C20.7385 20.9749 20.8686 21.0008 21.0001 21.0008C21.1315 21.0008 21.2616 20.9749 21.383 20.9246C21.5044 20.8742 21.6147 20.8005 21.7076 20.7075L25.7076 16.7075C25.8005 16.6146 25.8743 16.5043 25.9246 16.3829C25.9749 16.2615 26.0008 16.1314 26.0008 16C26.0008 15.8686 25.9749 15.7385 25.9246 15.6171C25.8743 15.4957 25.8005 15.3854 25.7076 15.2925L21.7076 11.2925C21.5199 11.1049 21.2654 10.9995 21.0001 10.9995C20.7347 10.9995 20.4802 11.1049 20.2926 11.2925C20.1049 11.4801 19.9995 11.7346 19.9995 12C19.9995 12.2654 20.1049 12.5199 20.2926 12.7075L23.5863 16L20.2926 19.2925C20.1996 19.3854 20.1258 19.4957 20.0755 19.6171C20.0252 19.7385 19.9993 19.8686 19.9993 20C19.9993 20.1314 20.0252 20.2615 20.0755 20.3829C20.1258 20.5043 20.1996 20.6146 20.2926 20.7075ZM33.0001 13H30.0001C29.7348 13 29.4805 13.1054 29.2929 13.2929C29.1054 13.4804 29.0001 13.7348 29.0001 14C29.0001 14.2652 29.1054 14.5196 29.2929 14.7071C29.4805 14.8946 29.7348 15 30.0001 15H33.0001V33H15.0001V25C15.0001 24.7348 14.8947 24.4804 14.7072 24.2929C14.5196 24.1054 14.2653 24 14.0001 24C13.7348 24 13.4805 24.1054 13.2929 24.2929C13.1054 24.4804 13.0001 24.7348 13.0001 25V33C13.0001 33.5304 13.2108 34.0391 13.5858 34.4142C13.9609 34.7893 14.4696 35 15.0001 35H33.0001C33.5305 35 34.0392 34.7893 34.4143 34.4142C34.7893 34.0391 35.0001 33.5304 35.0001 33V15C35.0001 14.4696 34.7893 13.9609 34.4143 13.5858C34.0392 13.2107 33.5305 13 33.0001 13Z" fill="black"/>
</svg>
