<svg width="48" height="48" viewBox="0 0 48 48" fill="none" xmlns="http://www.w3.org/2000/svg">
<rect width="48" height="48" rx="4" fill="#4ECC79"/>
<path d="M20.1921 24.0004H14.6918C14.4576 23.9996 14.2262 23.9461 14.012 23.8433C13.7979 23.7405 13.6058 23.5908 13.4479 23.4035C13.2877 23.2132 13.1658 22.989 13.0898 22.745C13.0139 22.501 12.9856 22.2426 13.0068 21.9861C13.1505 20.2686 13.6372 18.6055 14.4332 17.112C15.2291 15.6184 16.3153 14.3302 17.6165 13.3366C17.8087 13.1893 18.0272 13.0871 18.2579 13.0365C18.4887 12.9859 18.7266 12.9879 18.9566 13.0426C19.1866 13.0973 19.4035 13.2033 19.5934 13.354C19.7834 13.5046 19.9423 13.6965 20.0599 13.9175L22.81 19.0735C22.8656 19.1778 22.9017 19.2929 22.9161 19.4123C22.9306 19.5316 22.9233 19.6529 22.8945 19.7692C22.8657 19.8855 22.8161 19.9945 22.7484 20.09C22.6807 20.1855 22.5964 20.2657 22.5001 20.3259C22.4039 20.3861 22.2976 20.4251 22.1874 20.4408C22.0772 20.4565 21.9652 20.4486 21.8579 20.4174C21.7505 20.3862 21.6499 20.3324 21.5617 20.2591C21.4735 20.1858 21.3996 20.0944 21.344 19.9902L18.5939 14.8341C17.4926 15.6744 16.5733 16.764 15.8995 18.0275C15.2257 19.2909 14.8136 20.698 14.6918 22.1511C14.6916 22.1546 14.6922 22.1581 14.6935 22.1613C14.6948 22.1644 14.6967 22.1673 14.6992 22.1694L20.1921 22.1672C20.4165 22.1672 20.6318 22.2637 20.7905 22.4356C20.9492 22.6075 21.0383 22.8407 21.0383 23.0838C21.0383 23.3269 20.9492 23.56 20.7905 23.7319C20.6318 23.9038 20.4165 24.0004 20.1921 24.0004ZM34.9932 21.9861C34.8495 20.2686 34.3628 18.6055 33.5668 17.112C32.7709 15.6184 31.6847 14.3302 30.3835 13.3366C30.1913 13.1893 29.9728 13.0871 29.7421 13.0365C29.5113 12.9859 29.2734 12.9879 29.0434 13.0426C28.8134 13.0973 28.5965 13.2033 28.4066 13.354C28.2166 13.5046 28.0577 13.6965 27.9401 13.9175L25.1953 19.0735C25.1397 19.1778 25.1036 19.2929 25.0891 19.4123C25.0746 19.5316 25.082 19.6529 25.1108 19.7692C25.1689 20.0041 25.3108 20.2043 25.5052 20.3259C25.6996 20.4474 25.9306 20.4803 26.1474 20.4174C26.2548 20.3862 26.3554 20.3324 26.4436 20.2591C26.5318 20.1858 26.6057 20.0944 26.6613 19.9902L29.4114 14.8341C30.5115 15.6752 31.4297 16.7651 32.1025 18.0285C32.7753 19.2919 33.1867 20.6985 33.3082 22.1511C33.3082 22.1591 33.3082 22.1649 33.3082 22.1672H27.8079C27.5835 22.1672 27.3682 22.2637 27.2095 22.4356C27.0508 22.6075 26.9617 22.8407 26.9617 23.0838C26.9617 23.3269 27.0508 23.56 27.2095 23.7319C27.3682 23.9038 27.5835 24.0004 27.8079 24.0004H33.3082C33.5424 23.9996 33.7738 23.9461 33.988 23.8433C34.2021 23.7405 34.3942 23.5908 34.5521 23.4035C34.7123 23.2132 34.8342 22.989 34.9102 22.745C34.9861 22.501 35.0144 22.2426 34.9932 21.9861ZM26.637 26.198C26.5814 26.0938 26.5074 26.0024 26.4193 25.9291C26.3311 25.8558 26.2304 25.802 26.1231 25.7708C26.0157 25.7396 25.9038 25.7317 25.7936 25.7474C25.6834 25.7631 25.5771 25.8021 25.4808 25.8623C25.3846 25.9225 25.3002 26.0026 25.2325 26.0982C25.1649 26.1937 25.1152 26.3027 25.0864 26.419C25.0577 26.5353 25.0503 26.6566 25.0648 26.7759C25.0793 26.8953 25.1154 27.0104 25.1709 27.1147L27.9041 32.2398C26.68 32.8505 25.3483 33.1668 24.0005 33.1668C22.6528 33.1668 21.3211 32.8505 20.0969 32.2398L22.8291 27.1147C22.8846 27.0104 22.9207 26.8953 22.9352 26.7759C22.9497 26.6566 22.9423 26.5353 22.9136 26.419C22.8848 26.3027 22.8351 26.1937 22.7675 26.0982C22.6998 26.0026 22.6154 25.9225 22.5192 25.8623C22.4229 25.8021 22.3166 25.7631 22.2064 25.7474C22.0962 25.7317 21.9843 25.7396 21.8769 25.7708C21.7696 25.802 21.6689 25.8558 21.5807 25.9291C21.4926 26.0024 21.4186 26.0938 21.363 26.198L18.6319 31.3232C18.5143 31.5436 18.4404 31.7881 18.4149 32.0412C18.3893 32.2943 18.4127 32.5503 18.4836 32.7931C18.5544 33.0358 18.6712 33.2599 18.8264 33.4511C18.9816 33.6423 19.1718 33.7963 19.385 33.9035C20.8322 34.6259 22.4066 35 24 35C25.5934 35 27.1679 34.6259 28.615 33.9035C28.8282 33.7963 29.0184 33.6423 29.1736 33.4511C29.3288 33.2599 29.4456 33.0358 29.5164 32.7931C29.5873 32.5503 29.6107 32.2943 29.5851 32.0412C29.5596 31.7881 29.4857 31.5436 29.3681 31.3232L26.637 26.198ZM24 24.4587C24.251 24.4587 24.4964 24.3781 24.7052 24.227C24.9139 24.0759 25.0766 23.8612 25.1727 23.61C25.2687 23.3587 25.2939 23.0823 25.2449 22.8155C25.1959 22.5488 25.075 22.3038 24.8975 22.1116C24.72 21.9193 24.4938 21.7883 24.2476 21.7353C24.0014 21.6822 23.7462 21.7094 23.5143 21.8135C23.2823 21.9176 23.0841 22.0938 22.9446 22.3199C22.8051 22.546 22.7307 22.8118 22.7307 23.0838C22.7307 23.4484 22.8644 23.7982 23.1025 24.056C23.3405 24.3139 23.6634 24.4587 24 24.4587Z" fill="black"/>
</svg>
