<svg width="48" height="48" viewBox="0 0 48 48" fill="none" xmlns="http://www.w3.org/2000/svg">
<rect width="48" height="48" rx="4" fill="#7ECC4E"/>
<path d="M18 34.1538C18 34.3783 17.8946 34.5935 17.7071 34.7522C17.5196 34.9109 17.2652 35 17 35H15C14.4696 35 13.9609 34.8217 13.5858 34.5043C13.2107 34.187 13 33.7565 13 33.3077V29.9231C13 29.6987 13.1054 29.4834 13.2929 29.3248C13.4804 29.1661 13.7348 29.0769 14 29.0769C14.2652 29.0769 14.5196 29.1661 14.7071 29.3248C14.8946 29.4834 15 29.6987 15 29.9231V33.3077H17C17.2652 33.3077 17.5196 33.3968 17.7071 33.5555C17.8946 33.7142 18 33.9294 18 34.1538ZM35 19.7692V24.8462C35 25.0706 34.8946 25.2858 34.7071 25.4445C34.5196 25.6032 34.2652 25.6923 34 25.6923C33.7348 25.6923 33.4804 25.6032 33.2929 25.4445C33.1054 25.2858 33 25.0706 33 24.8462V20.6154H27C26.7348 20.6154 26.4804 20.5262 26.2929 20.3676C26.1054 20.2089 26 19.9936 26 19.7692V14.6923H23C22.7348 14.6923 22.4804 14.6032 22.2929 14.4445C22.1054 14.2858 22 14.0706 22 13.8462C22 13.6217 22.1054 13.4065 22.2929 13.2478C22.4804 13.0891 22.7348 13 23 13H27C27.1314 12.9999 27.2615 13.0217 27.3829 13.0642C27.5042 13.1067 27.6146 13.1689 27.7075 13.2475L34.7075 19.1706C34.8003 19.2492 34.8739 19.3426 34.9241 19.4453C34.9743 19.548 35.0001 19.6581 35 19.7692ZM28 18.9231H31.5863L28 15.8886V18.9231ZM18 13H15C14.4696 13 13.9609 13.1783 13.5858 13.4957C13.2107 13.813 13 14.2435 13 14.6923V17.2308C13 17.4552 13.1054 17.6704 13.2929 17.8291C13.4804 17.9878 13.7348 18.0769 14 18.0769C14.2652 18.0769 14.5196 17.9878 14.7071 17.8291C14.8946 17.6704 15 17.4552 15 17.2308V14.6923H18C18.2652 14.6923 18.5196 14.6032 18.7071 14.4445C18.8946 14.2858 19 14.0706 19 13.8462C19 13.6217 18.8946 13.4065 18.7071 13.2478C18.5196 13.0891 18.2652 13 18 13ZM34 28.2308C33.7348 28.2308 33.4804 28.3199 33.2929 28.4786C33.1054 28.6373 33 28.8525 33 29.0769V33.3077H32C31.7348 33.3077 31.4804 33.3968 31.2929 33.5555C31.1054 33.7142 31 33.9294 31 34.1538C31 34.3783 31.1054 34.5935 31.2929 34.7522C31.4804 34.9109 31.7348 35 32 35H33C33.5304 35 34.0391 34.8217 34.4142 34.5043C34.7893 34.187 35 33.7565 35 33.3077V29.0769C35 28.8525 34.8946 28.6373 34.7071 28.4786C34.5196 28.3199 34.2652 28.2308 34 28.2308ZM14 26.5385C14.2652 26.5385 14.5196 26.4493 14.7071 26.2906C14.8946 26.1319 15 25.9167 15 25.6923V21.4615C15 21.2371 14.8946 21.0219 14.7071 20.8632C14.5196 20.7045 14.2652 20.6154 14 20.6154C13.7348 20.6154 13.4804 20.7045 13.2929 20.8632C13.1054 21.0219 13 21.2371 13 21.4615V25.6923C13 25.9167 13.1054 26.1319 13.2929 26.2906C13.4804 26.4493 13.7348 26.5385 14 26.5385ZM27 33.3077H22C21.7348 33.3077 21.4804 33.3968 21.2929 33.5555C21.1054 33.7142 21 33.9294 21 34.1538C21 34.3783 21.1054 34.5935 21.2929 34.7522C21.4804 34.9109 21.7348 35 22 35H27C27.2652 35 27.5196 34.9109 27.7071 34.7522C27.8946 34.5935 28 34.3783 28 34.1538C28 33.9294 27.8946 33.7142 27.7071 33.5555C27.5196 33.3968 27.2652 33.3077 27 33.3077Z" fill="black"/>
</svg>
