<svg width="48" height="48" viewBox="0 0 48 48" fill="none" xmlns="http://www.w3.org/2000/svg">
<path d="M0 4C0 1.79086 1.79086 0 4 0H44C46.2091 0 48 1.79086 48 4V44C48 46.2091 46.2091 48 44 48H4C1.79086 48 0 46.2091 0 44V4Z" fill="#2948ED"/>
<path d="M36.7075 15.2925L32.7075 11.2925C32.6146 11.1995 32.5043 11.1258 32.3829 11.0754C32.2615 11.0251 32.1314 10.9992 32 10.9992C31.8686 10.9992 31.7385 11.0251 31.6171 11.0754C31.4957 11.1258 31.3854 11.1995 31.2925 11.2925L19.2925 23.2925C19.1997 23.3854 19.1261 23.4957 19.0759 23.6171C19.0257 23.7385 18.9999 23.8686 19 24V28C19 28.2652 19.1054 28.5196 19.2929 28.7071C19.4804 28.8946 19.7348 29 20 29H24C24.1314 29.0001 24.2615 28.9743 24.3829 28.9241C24.5042 28.8739 24.6146 28.8003 24.7075 28.7075L36.7075 16.7075C36.8005 16.6146 36.8742 16.5043 36.9246 16.3829C36.9749 16.2615 37.0008 16.1314 37.0008 16C37.0008 15.8686 36.9749 15.7385 36.9246 15.6171C36.8742 15.4957 36.8005 15.3854 36.7075 15.2925ZM23.5863 27H21V24.4137L29 16.4137L31.5863 19L23.5863 27ZM33 17.5862L30.4137 15L32 13.4137L34.5863 16L33 17.5862ZM36 24V34C36 34.5304 35.7893 35.0391 35.4142 35.4142C35.0391 35.7893 34.5304 36 34 36H14C13.4696 36 12.9609 35.7893 12.5858 35.4142C12.2107 35.0391 12 34.5304 12 34V14C12 13.4696 12.2107 12.9609 12.5858 12.5858C12.9609 12.2107 13.4696 12 14 12H24C24.2652 12 24.5196 12.1054 24.7071 12.2929C24.8946 12.4804 25 12.7348 25 13C25 13.2652 24.8946 13.5196 24.7071 13.7071C24.5196 13.8946 24.2652 14 24 14H14V34H34V24C34 23.7348 34.1054 23.4804 34.2929 23.2929C34.4804 23.1054 34.7348 23 35 23C35.2652 23 35.5196 23.1054 35.7071 23.2929C35.8946 23.4804 36 23.7348 36 24Z" fill="white"/>
</svg>
