<svg width="48" height="48" viewBox="0 0 48 48" fill="none" xmlns="http://www.w3.org/2000/svg">
<rect width="48" height="48" rx="4" fill="#E6C5BB"/>
<path d="M31.804 23.9999C34.6283 20.0342 36.0685 15.9355 34.0657 13.9325C32.0629 11.9296 27.9646 13.3699 23.9991 16.1944C20.0336 13.3699 15.9353 11.9296 13.9325 13.9325C11.9297 15.9355 13.3699 20.0342 16.1942 23.9999C13.3699 27.9657 11.9297 32.0644 13.9325 34.0673C14.5775 34.7124 15.4391 35 16.4428 35C18.5602 35 21.31 33.7201 24.0048 31.8054C26.6882 33.7201 29.438 35 31.5611 35C32.5648 35 33.4275 34.7112 34.0715 34.0673C36.0685 32.0644 34.6283 27.9657 31.804 23.9999ZM32.7699 15.2285C33.6452 16.1039 33.054 18.941 30.6479 22.4794C29.8867 21.537 29.0763 20.6355 28.2201 19.7786C27.3632 18.9235 26.4617 18.1142 25.5195 17.354C29.0576 14.9478 31.8945 14.3519 32.7699 15.2285ZM29.532 23.9999C28.7212 25.0256 27.8504 26.0025 26.9242 26.9253C26.0015 27.8515 25.0247 28.7224 23.9991 29.5332C22.9735 28.7224 21.9967 27.8515 21.074 26.9253C20.1478 26.0025 19.277 25.0256 18.4662 23.9999C20.0929 21.95 21.9493 20.0934 23.9991 18.4666C25.0247 19.2775 26.0015 20.1483 26.9242 21.0746C27.8504 21.9974 28.7212 22.9742 29.532 23.9999ZM15.2283 15.2285C15.4804 14.9753 15.8963 14.8446 16.4451 14.8446C17.7994 14.8446 19.9615 15.6353 22.4775 17.354C21.5362 18.1148 20.6352 18.9241 19.7781 19.7786C18.9231 20.6356 18.1138 21.5371 17.3537 22.4794C14.9476 18.941 14.353 16.1039 15.2283 15.2285ZM15.2283 32.7713C14.353 31.8959 14.9476 29.0588 17.3537 25.5204C18.1149 26.4628 18.9253 27.3643 19.7816 28.2212C20.6379 29.0757 21.5382 29.885 22.4787 30.6458C18.9406 33.0521 16.1037 33.6479 15.2283 32.7713ZM32.7699 32.7713C31.8945 33.6479 29.0576 33.0555 25.5195 30.6492C26.4613 29.8874 27.3627 29.0769 28.2201 28.2212C29.0752 27.3642 29.8844 26.4627 30.6445 25.5204C33.0506 29.0588 33.6452 31.8959 32.7699 32.7713ZM25.374 23.9999C25.374 24.2719 25.2934 24.5377 25.1423 24.7638C24.9912 24.9899 24.7765 25.1662 24.5253 25.2703C24.274 25.3743 23.9976 25.4016 23.7309 25.3485C23.4642 25.2955 23.2192 25.1645 23.0269 24.9722C22.8346 24.7799 22.7037 24.5349 22.6506 24.2682C22.5976 24.0014 22.6248 23.725 22.7289 23.4737C22.8329 23.2225 23.0091 23.0077 23.2352 22.8566C23.4614 22.7055 23.7272 22.6249 23.9991 22.6249C24.3638 22.6249 24.7135 22.7698 24.9713 23.0276C25.2292 23.2855 25.374 23.6352 25.374 23.9999Z" fill="black"/>
</svg>
