<svg width="48" height="48" viewBox="0 0 48 48" fill="none" xmlns="http://www.w3.org/2000/svg">
<rect width="48" height="48" rx="4" fill="#00FF00"/>
<path d="M19.4167 22.68C19.4167 22.4466 19.5132 22.2228 19.6852 22.0577C19.8571 21.8927 20.0902 21.8 20.3333 21.8H23.0833V19.16C23.0833 18.9266 23.1799 18.7028 23.3518 18.5377C23.5237 18.3727 23.7569 18.28 24 18.28C24.2431 18.28 24.4763 18.3727 24.6482 18.5377C24.8201 18.7028 24.9167 18.9266 24.9167 19.16V21.8H27.6667C27.9098 21.8 28.1429 21.8927 28.3148 22.0577C28.4868 22.2228 28.5833 22.4466 28.5833 22.68C28.5833 22.9134 28.4868 23.1372 28.3148 23.3022C28.1429 23.4673 27.9098 23.56 27.6667 23.56H24.9167V26.2C24.9167 26.4334 24.8201 26.6572 24.6482 26.8222C24.4763 26.9872 24.2431 27.08 24 27.08C23.7569 27.08 23.5237 26.9872 23.3518 26.8222C23.1799 26.6572 23.0833 26.4334 23.0833 26.2V23.56H20.3333C20.0902 23.56 19.8571 23.4673 19.6852 23.3022C19.5132 23.1372 19.4167 22.9134 19.4167 22.68ZM35 14.76V20.92C35 26.7192 32.0758 30.2337 29.6226 32.1608C26.9803 34.2354 24.3518 34.9405 24.2372 34.9691C24.0796 35.0103 23.9135 35.0103 23.7559 34.9691C23.6414 34.9405 21.0163 34.2354 18.3705 32.1608C15.9242 30.2337 13 26.7192 13 20.92V14.76C13 14.2932 13.1932 13.8456 13.537 13.5155C13.8808 13.1854 14.3471 13 14.8333 13H33.1667C33.6529 13 34.1192 13.1854 34.463 13.5155C34.8068 13.8456 35 14.2932 35 14.76ZM33.1667 14.76H14.8333V20.92C14.8333 25.023 16.4169 28.3461 19.5393 30.7991C20.8687 31.8428 22.3785 32.6548 24 33.1981C25.643 32.6452 27.1716 31.8185 28.5157 30.7562C31.6015 28.3076 33.1667 24.9977 33.1667 20.92V14.76Z" fill="black"/>
</svg>
