<svg width="48" height="48" viewBox="0 0 48 48" fill="none" xmlns="http://www.w3.org/2000/svg">
<path d="M0 4C0 1.79086 1.79086 0 4 0H44C46.2091 0 48 1.79086 48 4V44C48 46.2091 46.2091 48 44 48H4C1.79086 48 0 46.2091 0 44V4Z" fill="#787DF0"/>
<path d="M34.12 17.924L24.8123 13.1937C24.5634 13.0666 24.284 13 24 13C23.716 13 23.4366 13.0666 23.1877 13.1937L13.88 17.9269C13.6142 18.062 13.3923 18.2609 13.2375 18.5028C13.0827 18.7447 13.0007 19.0208 13 19.3023V28.6979C13.0007 28.9793 13.0827 29.2554 13.2375 29.4973C13.3923 29.7393 13.6142 29.9381 13.88 30.0732L23.1877 34.8054C23.4364 34.9331 23.7159 35 24 35C24.2841 35 24.5636 34.9331 24.8123 34.8054L34.12 30.0732C34.3858 29.9381 34.6077 29.7393 34.7625 29.4973C34.9173 29.2554 34.9993 28.9793 35 28.6979V19.3023C34.9999 19.0203 34.9181 18.7436 34.7633 18.5011C34.6085 18.2586 34.3863 18.0593 34.12 17.924ZM28.2308 26.3578V31.2786L24.8462 32.9998V24.4657L33.3077 20.1628V23.3065L28.6708 25.6642C28.5369 25.7323 28.4254 25.8326 28.3479 25.9547C28.2704 26.0768 28.23 26.2161 28.2308 26.3578ZM19.3292 25.6701L14.6923 23.3124V20.1687L23.1538 24.4716V33.0057L19.7692 31.2786V26.3578C19.7689 26.2171 19.7279 26.0791 19.6505 25.9581C19.5731 25.8371 19.4621 25.7377 19.3292 25.6701ZM19.2552 16.9848L23.5917 19.1903C23.7163 19.2536 23.8559 19.2867 23.9979 19.2867C24.1398 19.2867 24.2795 19.2536 24.404 19.1903L28.7406 16.9848L32.3875 18.8386L24 23.1041L15.6083 18.8366L19.2552 16.9848ZM24 14.5691L26.9827 16.0859L24 17.6037L21.0173 16.0869L24 14.5691ZM14.6923 25.1023L18.0769 26.8235V30.4181L14.6923 28.6979V25.1023ZM29.9231 30.4181V26.8235L33.3077 25.1023V28.6979L29.9231 30.4181Z" fill="white"/>
</svg>
