<svg width="48" height="48" viewBox="0 0 48 48" fill="none" xmlns="http://www.w3.org/2000/svg">
<path d="M0 4C0 1.79086 1.79086 0 4 0H44C46.2091 0 48 1.79086 48 4V44C48 46.2091 46.2091 48 44 48H4C1.79086 48 0 46.2091 0 44V4Z" fill="#C15C7A"/>
<path d="M23.4373 21.5291C23.5302 21.6221 23.6405 21.6959 23.7619 21.7462C23.8833 21.7965 24.0134 21.8224 24.1448 21.8224C24.2762 21.8224 24.4064 21.7965 24.5278 21.7462C24.6492 21.6959 24.7595 21.6221 24.8523 21.5291L29.8523 16.5291C29.9453 16.4362 30.0191 16.326 30.0694 16.2046C30.1197 16.0832 30.1456 15.953 30.1456 15.8216C30.1456 15.6902 30.1197 15.5601 30.0694 15.4387C30.0191 15.3173 29.9453 15.207 29.8523 15.1141L24.8523 10.1141C24.7595 10.0211 24.6492 9.94738 24.5278 9.89706C24.4064 9.84673 24.2762 9.82083 24.1448 9.82083C24.0134 9.82083 23.8833 9.84673 23.7619 9.89706C23.6405 9.94738 23.5302 10.0211 23.4373 10.1141L18.4373 15.1141C18.3444 15.207 18.2706 15.3173 18.2203 15.4387C18.1699 15.5601 18.144 15.6902 18.144 15.8216C18.144 15.953 18.1699 16.0832 18.2203 16.2046C18.2706 16.326 18.3444 16.4362 18.4373 16.5291L23.4373 21.5291ZM24.1448 12.2354L27.7311 15.8216L24.1448 19.4079L20.5586 15.8216L24.1448 12.2354ZM24.8523 26.1104C24.7595 26.0174 24.6492 25.9436 24.5278 25.8933C24.4064 25.843 24.2762 25.8171 24.1448 25.8171C24.0134 25.8171 23.8833 25.843 23.7619 25.8933C23.6405 25.9436 23.5302 26.0174 23.4373 26.1104L18.4373 31.1104C18.3444 31.2032 18.2706 31.3135 18.2203 31.4349C18.1699 31.5563 18.144 31.6865 18.144 31.8179C18.144 31.9493 18.1699 32.0794 18.2203 32.2008C18.2706 32.3222 18.3444 32.4325 18.4373 32.5254L23.4373 37.5254C23.5302 37.6183 23.6405 37.6921 23.7619 37.7424C23.8833 37.7928 24.0134 37.8187 24.1448 37.8187C24.2762 37.8187 24.4064 37.7928 24.5278 37.7424C24.6492 37.6921 24.7595 37.6183 24.8523 37.5254L29.8523 32.5254C29.9453 32.4325 30.0191 32.3222 30.0694 32.2008C30.1197 32.0794 30.1456 31.9493 30.1456 31.8179C30.1456 31.6865 30.1197 31.5563 30.0694 31.4349C30.0191 31.3135 29.9453 31.2032 29.8523 31.1104L24.8523 26.1104ZM24.1448 35.4079L20.5586 31.8216L24.1448 28.2354L27.7311 31.8216L24.1448 35.4079ZM37.8523 23.1141L32.8523 18.1141C32.7595 18.0211 32.6492 17.9474 32.5278 17.8971C32.4064 17.8467 32.2762 17.8208 32.1448 17.8208C32.0134 17.8208 31.8833 17.8467 31.7619 17.8971C31.6405 17.9474 31.5302 18.0211 31.4373 18.1141L26.4373 23.1141C26.3444 23.207 26.2706 23.3173 26.2203 23.4387C26.1699 23.5601 26.144 23.6902 26.144 23.8216C26.144 23.953 26.1699 24.0832 26.2203 24.2046C26.2706 24.326 26.3444 24.4362 26.4373 24.5291L31.4373 29.5291C31.5302 29.6221 31.6405 29.6959 31.7619 29.7462C31.8833 29.7965 32.0134 29.8224 32.1448 29.8224C32.2762 29.8224 32.4064 29.7965 32.5278 29.7462C32.6492 29.6959 32.7595 29.6221 32.8523 29.5291L37.8523 24.5291C37.9453 24.4362 38.0191 24.326 38.0694 24.2046C38.1197 24.0832 38.1456 23.953 38.1456 23.8216C38.1456 23.6902 38.1197 23.5601 38.0694 23.4387C38.0191 23.3173 37.9453 23.207 37.8523 23.1141ZM32.1448 27.4079L28.5586 23.8216L32.1448 20.2354L35.7311 23.8216L32.1448 27.4079ZM21.8523 23.1141L16.8523 18.1141C16.7595 18.0211 16.6492 17.9474 16.5278 17.8971C16.4064 17.8467 16.2762 17.8208 16.1448 17.8208C16.0134 17.8208 15.8833 17.8467 15.7619 17.8971C15.6405 17.9474 15.5302 18.0211 15.4373 18.1141L10.4373 23.1141C10.3444 23.207 10.2706 23.3173 10.2203 23.4387C10.1699 23.5601 10.144 23.6902 10.144 23.8216C10.144 23.953 10.1699 24.0832 10.2203 24.2046C10.2706 24.326 10.3444 24.4362 10.4373 24.5291L15.4373 29.5291C15.5302 29.6221 15.6405 29.6959 15.7619 29.7462C15.8833 29.7965 16.0134 29.8224 16.1448 29.8224C16.2762 29.8224 16.4064 29.7965 16.5278 29.7462C16.6492 29.6959 16.7595 29.6221 16.8523 29.5291L21.8523 24.5291C21.9453 24.4362 22.0191 24.326 22.0694 24.2046C22.1197 24.0832 22.1456 23.953 22.1456 23.8216C22.1456 23.6902 22.1197 23.5601 22.0694 23.4387C22.0191 23.3173 21.9453 23.207 21.8523 23.1141ZM16.1448 27.4079L12.5586 23.8216L16.1448 20.2354L19.7311 23.8216L16.1448 27.4079Z" fill="white"/>
</svg>
