<svg width="48" height="48" viewBox="0 0 48 48" fill="none" xmlns="http://www.w3.org/2000/svg">
<rect width="48" height="48" rx="4" fill="#4A11C3"/>
<path d="M33.3077 13H14.6923C14.2435 13 13.813 13.1932 13.4957 13.537C13.1783 13.8808 13 14.3471 13 14.8333V30.4167C13 30.9029 13.1783 31.3692 13.4957 31.713C13.813 32.0568 14.2435 32.25 14.6923 32.25H16.3846V34.0833C16.3846 34.3264 16.4738 34.5596 16.6324 34.7315C16.7911 34.9034 17.0064 35 17.2308 35C17.4552 35 17.6704 34.9034 17.8291 34.7315C17.9878 34.5596 18.0769 34.3264 18.0769 34.0833V32.25H29.9231V34.0833C29.9231 34.3264 30.0122 34.5596 30.1709 34.7315C30.3296 34.9034 30.5448 35 30.7692 35C30.9936 35 31.2089 34.9034 31.3676 34.7315C31.5262 34.5596 31.6154 34.3264 31.6154 34.0833V32.25H33.3077C33.7565 32.25 34.187 32.0568 34.5043 31.713C34.8217 31.3692 35 30.9029 35 30.4167V14.8333C35 14.3471 34.8217 13.8808 34.5043 13.537C34.187 13.1932 33.7565 13 33.3077 13ZM33.3077 30.4167H14.6923V14.8333H33.3077V22.1667H31.5435C31.3313 20.8069 30.6553 19.5831 29.6495 18.7377C28.6437 17.8924 27.3815 17.4873 26.113 17.6026C24.8445 17.7179 23.6622 18.3453 22.8005 19.3604C21.9389 20.3755 21.4606 21.7043 21.4606 23.0833C21.4606 24.4624 21.9389 25.7912 22.8005 26.8063C23.6622 27.8214 24.8445 28.4487 26.113 28.5641C27.3815 28.6794 28.6437 28.2743 29.6495 27.4289C30.6553 26.5836 31.3313 25.3598 31.5435 24H33.3077V30.4167ZM28.0023 22.1667C27.816 21.8172 27.5285 21.544 27.1843 21.3896C26.8402 21.2351 26.4586 21.208 26.0987 21.3125C25.7389 21.4169 25.4209 21.6471 25.1941 21.9673C24.9673 22.2875 24.8444 22.6798 24.8444 23.0833C24.8444 23.4869 24.9673 23.8792 25.1941 24.1994C25.4209 24.5196 25.7389 24.7497 26.0987 24.8542C26.4586 24.9587 26.8402 24.9316 27.1843 24.7771C27.5285 24.6227 27.816 24.3495 28.0023 24H29.8173C29.6114 24.8641 29.1216 25.6172 28.4398 26.1181C27.7579 26.6189 26.9309 26.8332 26.1137 26.7208C25.2965 26.6083 24.5451 26.1768 24.0006 25.5072C23.456 24.8376 23.1556 23.9758 23.1556 23.0833C23.1556 22.1909 23.456 21.3291 24.0006 20.6595C24.5451 19.9898 25.2965 19.5583 26.1137 19.4459C26.9309 19.3334 27.7579 19.5477 28.4398 20.0486C29.1216 20.5495 29.6114 21.3026 29.8173 22.1667H28.0023Z" fill="white"/>
</svg>
